PathFileType	3	(X/Y/Z)	F:\ViconData\AntennenMessung\Messung1\Session1\ID19.trc
DataRate	CameraRate	NumFrames	NumMarkers	Units	OrigDataRate	OrigDataStartFrame	OrigNumFrames
120.0	120.0	6	70	mm	120.0	1	942	
Frame#	Time	Ashort			Along			Atop			A4			Bshort			Blong			Btop			B4			Cshort			Clong			Ctop			C4			Dshort			Dlong			Dtop			D4			Eshort			Elong			Etop			E4			Fshort			Flong			Ftop			F4			Gshort			Glong			Gtop			G4			Hshort			Hlong			Htop			H4			I1			I2			I3			I4			I5			WandAshort			WandAlong			WandAtop			WandA4			WandA15			WandBshort			WandB4			WandB5			WandBtop			WandBlong			WandCshort			WandClong			WandCtop			WandC4			WandC5			Acenter			Aantenna			Bcenter			Bantenna			Ccenter			Cantenna			Dcenter			Dantenna			Ecenter			Eantenna			Fcenter			Fantenna			Gcenter			Gantenna			Hcenter			Hantenna			Icenter			Iantenna			
		X1	Y1	Z1	X2	Y2	Z2	X3	Y3	Z3	X4	Y4	Z4	X5	Y5	Z5	X6	Y6	Z6	X7	Y7	Z7	X8	Y8	Z8	X9	Y9	Z9	X10	Y10	Z10	X11	Y11	Z11	X12	Y12	Z12	X13	Y13	Z13	X14	Y14	Z14	X15	Y15	Z15	X16	Y16	Z16	X17	Y17	Z17	X18	Y18	Z18	X19	Y19	Z19	X20	Y20	Z20	X21	Y21	Z21	X22	Y22	Z22	X23	Y23	Z23	X24	Y24	Z24	X25	Y25	Z25	X26	Y26	Z26	X27	Y27	Z27	X28	Y28	Z28	X29	Y29	Z29	X30	Y30	Z30	X31	Y31	Z31	X32	Y32	Z32	X33	Y33	Z33	X34	Y34	Z34	X35	Y35	Z35	X36	Y36	Z36	X37	Y37	Z37	X38	Y38	Z38	X39	Y39	Z39	X40	Y40	Z40	X41	Y41	Z41	X42	Y42	Z42	X43	Y43	Z43	X44	Y44	Z44	X45	Y45	Z45	X46	Y46	Z46	X47	Y47	Z47	X48	Y48	Z48	X49	Y49	Z49	X50	Y50	Z50	X51	Y51	Z51	X52	Y52	Z52	X53	Y53	Z53	X54	Y54	Z54	X55	Y55	Z55	X56	Y56	Z56	X57	Y57	Z57	X58	Y58	Z58	X59	Y59	Z59	X60	Y60	Z60	X61	Y61	Z61	X62	Y62	Z62	X63	Y63	Z63	X64	Y64	Z64	X65	Y65	Z65	X66	Y66	Z66	X67	Y67	Z67	X68	Y68	Z68	X69	Y69	Z69	X70	Y70	Z70	
1	0	-1038.2576	214.50389	-1644.1425	-1109.4155	204.07611	-1599.3099	-1063.6525	173.125	-1625.927	-1054.1794	262.1485	-1634.9564	-1352.9393	234.93971	1003.7111	-1281.4802	227.11743	1052.4424	-1322.7933	193.83676	1020.9342	-1284.7538	287.82959	1052.7529	813.97107	187.73715	1209.4767	892.19885	178.50989	1179.2836	844.13733	145.8087	1198.2113	860.78314	292.49466	1167.8716	1115.7338	209.47961	-1401.5991	1056.2042	194.06198	-1460.4058	1095.0309	162.23796	-1423.9738	1069.8159	238.66826	-1426.0063	-1204.5623	1685.8765	-1563.2538	-1129.1428	1688.2623	-1606.0062	-1173.2322	1724.4437	-1581.9607	-1134.0637	1580.8995	-1603.7623	-1239.6941	1699.2832	1119.531	-1309.3444	1698.7555	1071.8994	-1270.4087	1736.3181	1096.8804	-1245.449	1592.6952	1110.6975	988.92657	1664.1807	1162.2185	955.89587	1702.156	1181.01	922.62085	1661.9899	1215.0585	939.74078	1659.3779	1159.9448	999.00415	1668.3992	-1579.4971	1058.6948	1669.9034	-1518.7701	1024.9247	1707.9578	-1551.2097	1059.1698	1672.1233	-1585.5317	-186.28795	163.15611	-148.65816	-189.29283	171.77118	-64.630257	-186.63025	127.26668	-106.06499	-155.14246	168.18285	-111.72957	-235.95319	164.93771	-113.54294																																														-1068.5272	210.06805	-1625.0713	-1073.6277	248.7227	-1624.176	-1321.5314	231.50162	1025.1295	-1320.2335	270.24045	1029.4446	847.90393	183.73462	1196.3798	851.75378	222.49896	1194.5078	1088.7916	202.50183	-1428.214	1082.8516	240.83485	-1432.2509	-1171.9274	1686.9088	-1581.7533	-1170.5723	1647.9329	-1581.5378	-1270.9832	1699.0461	1098.1334	-1271.5839	1660.0726	1099.4438	953.45148	1704.9662	1182.4008	972.79462	1731.9297	1161.9113	1026.3643	1669.0886	-1551.662	1027.8076	1630.118	-1552.1155	-187.66373	167.10052	-110.18597	-188.66989	205.88055	-114.19794
2	0.0083333333	-1038.2429	214.50841	-1644.1385	-1109.4083	204.06306	-1599.3076	-1063.6506	173.11731	-1625.8939	-1054.1825	262.15042	-1634.9702	-1353.0146	234.94919	1003.7325	-1281.4631	227.23067	1052.4832	-1322.7423	193.91063	1020.8643	-1284.7916	287.80396	1052.8373	814.04315	187.71526	1209.4954	892.13171	178.56821	1179.2972	844.57098	145.34073	1198.3741	860.7959	292.47754	1167.8945	1115.7372	209.48508	-1401.5911	1056.2063	194.06032	-1460.411	1095.0842	162.26804	-1423.9307	1069.8002	238.67122	-1425.9968	-1204.6705	1685.9879	-1563.0297	-1129.1372	1688.2543	-1605.9988	-1173.2275	1724.4406	-1581.9525	-1134.0566	1580.913	-1603.7822	-1239.6821	1699.2751	1119.5338	-1309.3361	1698.748	1071.8928	-1270.4001	1736.3031	1096.8759	-1245.4218	1592.6388	1110.6746	988.83551	1664.1071	1162.2197	955.85242	1702.2721	1181.0264	922.62549	1661.9899	1215.0785	939.73621	1659.3903	1159.9154	999.01025	1668.4045	-1579.4929	1058.6998	1669.8989	-1518.7676	1024.9189	1707.962	-1551.2042	1059.1792	1672.1366	-1585.5337	-186.29819	163.14867	-148.66844	-189.29335	171.74837	-64.620338	-186.77557	127.20904	-106.07436	-155.14708	168.16718	-111.72843	-235.93782	164.88396	-113.49306																																														-1068.5422	210.0612	-1625.0514	-1073.6602	248.71388	-1624.1698	-1321.5944	231.55977	1025.1401	-1320.4133	270.29285	1029.5393	848.25024	183.70833	1196.2667	851.96765	222.47234	1194.1376	1088.8407	202.51605	-1428.1661	1082.8944	240.8484	-1432.2003	-1171.933	1686.9701	-1581.6531	-1170.5864	1647.9946	-1581.3418	-1270.9758	1699.0382	1098.1299	-1271.578	1660.0649	1099.4413	953.58801	1704.8921	1182.3174	972.99249	1731.7792	1161.7858	1026.3622	1669.0894	-1551.6663	1027.8091	1630.1189	-1552.1296	-187.66954	167.08611	-110.18639	-188.53903	205.87074	-114.18577
3	0.016666667	-1038.2548	214.50519	-1644.1398	-1109.4214	204.02831	-1599.2867	-1063.7679	172.45079	-1625.5593	-1054.1853	262.16101	-1634.9554	-1353.0789	234.84825	1003.601	-1281.4803	227.18878	1052.4733	-1322.814	193.73552	1021.0295	-1284.7871	287.79401	1052.8824	814.00305	187.7661	1209.4974	892.41663	178.53593	1179.2277	844.14203	145.66658	1198.3206	860.81012	292.48041	1167.9204	1115.7391	209.48616	-1401.5951	1056.2106	194.07483	-1460.3867	1095.119	162.35715	-1423.9785	1069.8068	238.6407	-1425.9923	-1204.668	1685.9802	-1563.0345	-1129.1339	1688.2542	-1605.9968	-1173.2319	1724.4403	-1581.9563	-1134.0625	1580.9075	-1603.7784	-1239.7087	1699.2842	1119.536	-1309.0709	1698.3105	1071.7531	-1270.4012	1736.2939	1096.8745	-1245.3982	1592.6346	1110.6658	988.86444	1664.1261	1162.2526	955.9472	1702.1803	1181.0403	922.73328	1661.9884	1215.1173	939.7215	1659.3848	1159.9415	998.99719	1668.4098	-1579.4922	1058.6925	1669.8983	-1518.7754	1024.9276	1707.9624	-1551.1991	1059.172	1672.1307	-1585.521	-186.29684	163.17076	-148.67264	-189.30577	171.7231	-64.620422	-186.78581	127.22643	-106.03313	-155.11459	168.19669	-111.75041	-235.95439	164.87981	-113.51884																																														-1068.8522	210.00072	-1624.8553	-1074.0844	248.64139	-1624.1312	-1321.5637	231.47681	1025.1128	-1320.2799	270.22952	1029.3054	847.89252	183.77693	1196.4152	851.7074	222.54149	1194.4772	1088.8456	202.52371	-1428.1556	1082.8589	240.85477	-1432.1417	-1171.932	1686.9656	-1581.6541	-1170.58	1647.9904	-1581.3398	-1270.7538	1698.8483	1098.1493	-1271.1208	1659.8727	1099.4763	953.61847	1704.8723	1182.3695	972.99249	1731.7732	1161.827	1026.3634	1669.0922	-1551.6577	1027.8027	1630.1213	-1552.1176	-187.67691	167.09334	-110.1215	-188.54385	205.88028	-114.09911
4	0.025	-1038.2152	214.39195	-1644.2233	-1109.4188	204.08391	-1599.3093	-1063.6594	173.09933	-1625.9207	-1054.1699	262.17023	-1634.9797	-1353.0168	234.87668	1003.7854	-1281.4904	227.07536	1052.5302	-1322.7778	193.76901	1021.0104	-1284.7719	287.82794	1052.7888	813.96173	187.7093	1209.4922	892.4328	178.56425	1179.2278	844.21143	145.5775	1198.3373	860.87579	292.46127	1168.0685	1115.7329	209.48073	-1401.5925	1056.2057	194.08362	-1460.412	1095.0883	162.34506	-1424.0569	1069.8073	238.64804	-1426.0022	-1204.6782	1685.9769	-1563.0173	-1129.162	1688.2339	-1605.9823	-1173.2308	1724.4465	-1581.9586	-1134.0626	1580.9078	-1603.7712	-1239.6935	1699.2843	1119.5359	-1309.0991	1698.3562	1071.7646	-1270.4203	1736.3331	1096.8888	-1245.3435	1592.5308	1110.6442	988.93359	1664.1735	1162.2166	955.95538	1702.3113	1181.0973	922.67487	1661.9589	1215.0739	939.69946	1659.3936	1159.9493	999.0047	1668.3929	-1579.4963	1058.8811	1670.1664	-1518.7573	1024.9247	1707.9618	-1551.1892	1059.1748	1672.1249	-1585.5125	-186.31367	163.15471	-148.64911	-189.30403	171.74353	-64.606834	-186.71613	127.2525	-106.06946	-155.1485	168.20827	-111.75042	-235.95001	164.91501	-113.51372																																														-1068.4984	210.00789	-1625.1211	-1073.5669	248.66806	-1624.2837	-1321.5459	231.44418	1025.2324	-1320.2794	270.18112	1029.5736	847.91241	183.75266	1196.3982	851.67108	222.52115	1194.429	1088.7986	202.51399	-1428.2064	1082.7968	240.8454	-1432.1665	-1171.9333	1686.9556	-1581.6473	-1170.5845	1647.9802	-1581.3239	-1270.78	1698.8685	1098.1392	-1271.1543	1659.892	1099.4402	953.67883	1704.9437	1182.4005	973.09943	1731.8693	1161.9343	1026.4971	1669.2072	-1551.6078	1028.0784	1630.2415	-1552.0288	-187.68265	167.08662	-110.17475	-188.62369	205.86986	-114.17175
5	0.033333333	-1038.233	214.40106	-1644.2319	-1109.424	204.05699	-1599.3053	-1063.6273	173.14095	-1625.8817	-1054.1758	262.15393	-1634.9546	-1353.0299	234.68419	1003.5612	-1281.3875	227.07285	1052.5125	-1322.774	193.826	1020.9207	-1284.722	287.78922	1052.7698	813.98828	187.73325	1209.542	892.9552	179.25584	1178.649	844.28802	145.51463	1198.4059	860.75049	292.44153	1167.9058	1115.7793	209.85529	-1401.8257	1056.1825	194.04916	-1460.4015	1095.1143	162.35257	-1423.9535	1069.8074	238.62985	-1425.9805	-1204.6622	1685.9915	-1563.0375	-1129.1603	1688.2305	-1605.973	-1173.2805	1724.3373	-1581.8187	-1134.0624	1580.9172	-1603.7894	-1239.6948	1699.2808	1119.5394	-1309.0153	1698.2284	1071.7152	-1270.405	1736.3052	1096.8735	-1245.4554	1592.6888	1110.6873	988.93585	1664.1978	1162.2159	955.93652	1702.2231	1181.0513	922.65656	1661.9401	1215.1091	939.75476	1659.3918	1159.9264	998.98169	1668.3976	-1579.4751	1058.6914	1669.9054	-1518.7568	1024.9219	1707.965	-1551.1823	1059.1726	1672.1274	-1585.5043	-186.36432	163.37872	-148.59348	-189.27464	171.73868	-64.613449	-186.69768	127.23576	-106.08423	-155.14845	168.15898	-111.72402	-235.97121	164.9245	-113.52352																																														-1068.507	210.00224	-1625.1267	-1073.624	248.65698	-1624.3353	-1321.6001	231.34506	1025.0361	-1320.3876	270.09378	1029.2866	847.63904	184.1207	1196.3774	851.00684	222.92149	1194.3386	1088.7643	202.69044	-1428.3778	1082.735	240.99188	-1432.5787	-1172.0408	1686.9587	-1581.5881	-1170.7483	1647.981	-1581.3478	-1270.7107	1698.8097	1098.1416	-1271.0284	1659.8333	1099.4596	953.56207	1704.9592	1182.4064	972.92413	1731.9104	1161.9187	1026.3616	1669.089	-1551.6327	1027.8048	1630.1183	-1552.084	-187.69836	167.21078	-110.0983	-188.66946	206.0036	-113.99367
6	0.041666667	-1038.2703	214.51152	-1644.1621	-1109.4204	204.05327	-1599.3091	-1063.6727	173.12346	-1625.8662	-1054.2267	262.14362	-1634.9545	-1353.0134	234.68024	1003.769	-1281.526	227.36047	1052.3363	-1322.7905	193.81056	1020.955	-1284.7192	287.80804	1052.7671	813.93164	187.77005	1209.4928	892.42572	178.46837	1179.2424	844.62042	145.22926	1198.353	860.87659	292.44989	1168.0051	1115.7206	209.47198	-1401.608	1056.177	194.04767	-1460.4106	1095.1189	162.32574	-1424.0144	1069.8224	238.63118	-1425.9432	-1204.6791	1686.0006	-1563.0276	-1129.1987	1688.4292	-1606.7278	-1173.2427	1724.4368	-1581.9587	-1134.0737	1580.9064	-1603.7798	-1239.6614	1699.2338	1119.5251	-1309.0557	1698.2821	1071.73	-1270.4082	1736.3103	1096.8748	-1245.4375	1592.6975	1110.6859	988.94647	1664.2064	1162.2406	955.95471	1702.2827	1181.1102	922.7995	1661.932	1215.0758	939.76251	1659.3922	1159.9415	998.97955	1668.4073	-1579.4769	1058.6862	1669.9116	-1518.7334	1024.915	1707.9747	-1551.1722	1059.1742	1672.1262	-1585.5004	-186.30202	163.16827	-148.62692	-189.27777	171.73242	-64.58963	-186.83191	127.10629	-106.01768	-155.16423	168.15685	-111.73634	-235.98233	164.87939	-113.51427																																														-1068.5869	210.0553	-1625.0503	-1073.7299	248.70528	-1624.1965	-1321.7075	231.47476	1025.0375	-1320.5933	270.23181	1029.2386	848.35809	183.69044	1196.2255	852.12476	222.44885	1194.0813	1088.8192	202.5034	-1428.1743	1082.8097	240.83269	-1432.1431	-1172.0249	1687.0511	-1581.933	-1170.7551	1648.0719	-1581.9064	-1270.7477	1698.8074	1098.1145	-1271.1006	1659.8302	1099.4031	953.6936	1704.8922	1182.4034	973.06787	1731.8333	1161.9141	1026.3555	1669.0969	-1551.6254	1027.7994	1630.1263	-1552.0797	-187.66547	167.09225	-110.12213	-188.47406	205.88007	-114.10358
